<svg width="4467.213114754099" height="2500" version="1.1" xmlns="http://www.w3.org/2000/svg" ><desc>Binarized and Traced by BDFM https://bitmap.designfamilymarket.com/</desc><path fill="rgb(0,0,0)" d="M 1311 492 L 1393 492 L 1393 574 L 1475 574 L 1475 656 L 1516 656 L 1516 738 L 1598 738 L 1598 820 L 1639 820 L 1639 902 L 1721 902 L 1721 984 L 1762 984 L 1762 1066 L 1844 1066 L 1844 1148 L 1926 1148 L 1926 1230 L 1967 1230 L 1967 1311 L 2049 1311 L 2049 1393 L 2131 1393 L 2131 1475 L 2172 1475 L 2172 1557 L 2254 1557 L 2254 1639 L 2295 1639 L 2295 1721 L 2377 1721 L 2377 1803 L 2459 1803 L 2459 1885 L 2500 1885 L 2500 1967 L 2541 1967 L 2541 2049 L 1885 2049 L 1885 1967 L 1844 1967 L 1844 1885 L 1762 1885 L 1762 1803 L 1721 1803 L 1721 1721 L 1639 1721 L 1639 1639 L 1557 1639 L 1557 1557 L 1516 1557 L 1516 1475 L 1434 1475 L 1434 1393 L 1393 1393 L 1393 1311 L 1311 1311 Z M 3115 492 L 3197 492 L 3197 1311 L 3115 1311 L 3115 1393 L 3074 1393 L 3074 1475 L 2992 1475 L 2992 1557 L 2377 1557 L 2377 1393 L 2459 1393 L 2459 1311 L 2541 1311 L 2541 1230 L 2582 1230 L 2582 1148 L 2664 1148 L 2664 1066 L 2705 1066 L 2705 984 L 2787 984 L 2787 902 L 2869 902 L 2869 820 L 2910 820 L 2910 738 L 2992 738 L 2992 656 L 3033 656 L 3033 574 L 3115 574 Z M 3156 1475 L 3197 1475 L 3197 1557 L 3156 1557 Z" /></svg>